<svg width="60" height="18" viewBox="0 0 60 18" fill="none" xmlns="http://www.w3.org/2000/svg">
<path d="M3.6199 14.1797C2.48424 14.1797 1.59701 13.7532 0.958208 12.9003C0.319403 12.0474 0 10.9042 0 9.47088C0 7.82428 0.431785 6.58045 1.29536 5.73939C2.17075 4.89832 3.41288 4.47779 5.02172 4.47779C5.11636 4.47779 5.42393 4.48963 5.94444 4.51333V3.44719C5.94444 3.18657 5.92669 3.01481 5.8912 2.93189C5.85571 2.84896 5.75516 2.76012 5.58955 2.66535L4.79104 2.25666L4.87976 0.906219C6.01542 0.704837 6.85533 0.568608 7.39949 0.497532C7.94366 0.41461 8.37545 0.367226 8.69485 0.35538C8.80132 0.627838 8.87821 0.935833 8.92553 1.27937V11.3899C8.92553 11.6032 8.94327 11.7512 8.97876 11.8342C9.02608 11.9171 9.12663 12 9.28042 12.0829L9.95471 12.4916L9.88374 13.5933C8.72442 13.8894 7.58877 14.0671 6.47678 14.1264C6.39397 13.9013 6.31116 13.6288 6.22835 13.309C5.42393 13.8894 4.55444 14.1797 3.6199 14.1797ZM4.64908 11.9052C5.03946 11.9052 5.47716 11.7749 5.96218 11.5143V6.91214C5.60729 6.75814 5.15185 6.68115 4.59585 6.68115C4.14632 6.68115 3.71453 6.74038 3.30049 6.85884C3.20586 7.08391 3.12896 7.3919 3.06981 7.78282C3.0225 8.17374 2.99884 8.60612 2.99884 9.07996C2.99884 10.0513 3.12896 10.768 3.38922 11.23C3.6613 11.6802 4.08126 11.9052 4.64908 11.9052Z" fill="white"/>
<path d="M11.3719 0.799605L14.3885 0L15.116 2.70089L12.1172 3.51826L11.3719 0.799605ZM10.6267 12.3139L11.8688 11.9408V7.6229C11.8688 7.36229 11.8451 7.19645 11.7978 7.12537C11.7623 7.04245 11.6618 6.9536 11.4961 6.85884L10.7154 6.43238L10.8041 5.0997C11.786 4.91017 12.5431 4.77394 13.0754 4.69102C13.6196 4.59625 14.1164 4.54294 14.566 4.5311C14.7197 5.04047 14.8144 5.41955 14.8499 5.66831V11.3544C14.8499 11.6032 14.8676 11.769 14.9031 11.8519C14.9386 11.9348 15.0391 12.0237 15.2048 12.1185L16.0742 12.616L16.0033 13.9487H10.6799L10.6267 12.3139Z" fill="white"/>
<path d="M20.4515 18C19.0911 18 18.0619 17.7868 17.3639 17.3603C16.6778 16.9339 16.3347 16.306 16.3347 15.4768C16.3347 14.6002 16.7369 13.8302 17.5414 13.1668C17.2929 12.9181 17.1687 12.6456 17.1687 12.3495C17.1687 11.923 17.4467 11.3189 18.0027 10.537C17.0327 10.0276 16.5477 9.15104 16.5477 7.90721C16.5477 6.81737 16.9144 5.97631 17.6478 5.38401C18.3931 4.77986 19.4637 4.47779 20.8596 4.47779C21.8415 4.47779 22.6459 4.62586 23.2729 4.92201L25.4022 4.26456H26.2362V6.84107H24.8521C24.9113 7.13722 24.9409 7.42744 24.9409 7.71175C24.9409 8.80158 24.5741 9.6308 23.8407 10.1994C23.1072 10.768 22.0307 11.0523 20.6112 11.0523C20.1262 11.0523 19.6885 11.0168 19.2981 10.9457V11.1945C19.2981 11.384 19.375 11.5202 19.5288 11.6032C19.6944 11.6742 20.0433 11.7453 20.5757 11.8164L22.1727 12.0474C23.4266 12.2251 24.2902 12.5331 24.7634 12.9714C25.2484 13.4097 25.4909 13.9724 25.4909 14.6594C25.4909 15.7256 25.0532 16.5489 24.1778 17.1293C23.3024 17.7098 22.0603 18 20.4515 18ZM20.8773 9.31096C21.1258 9.31096 21.4097 9.27542 21.7291 9.20434C21.7764 9.06219 21.8178 8.84896 21.8533 8.56466C21.9006 8.28035 21.9243 8.01974 21.9243 7.78282C21.9243 7.24975 21.806 6.85291 21.5694 6.5923C21.3446 6.33169 20.9897 6.20138 20.5047 6.20138C20.2681 6.20138 20.0079 6.23692 19.7239 6.308C19.6648 6.45015 19.6116 6.65745 19.5642 6.92991C19.5288 7.20237 19.511 7.46298 19.511 7.71175C19.511 8.25666 19.6234 8.65943 19.8482 8.92004C20.0729 9.18065 20.416 9.31096 20.8773 9.31096ZM21.2677 15.9921C21.8119 15.9921 22.2259 15.9447 22.5098 15.85C22.5808 15.7078 22.6163 15.5183 22.6163 15.2813C22.6163 14.997 22.5158 14.7779 22.3147 14.6239C22.1136 14.4817 21.7527 14.3751 21.2322 14.304L20.6644 14.2152C20.1439 14.156 19.6175 14.0731 19.0851 13.9664C19.0142 14.2863 18.9787 14.541 18.9787 14.7305C18.9787 15.157 19.1679 15.4709 19.5465 15.6723C19.925 15.8855 20.4988 15.9921 21.2677 15.9921Z" fill="white"/>
<path d="M27.6782 0.799605L30.6948 0L31.4223 2.70089L28.4235 3.51826L27.6782 0.799605ZM26.933 12.3139L28.1751 11.9408V7.6229C28.1751 7.36229 28.1514 7.19645 28.1041 7.12537C28.0686 7.04245 27.9681 6.9536 27.8024 6.85884L27.0217 6.43238L27.1104 5.0997C28.0923 4.91017 28.8494 4.77394 29.3817 4.69102C29.9259 4.59625 30.4227 4.54294 30.8723 4.5311C31.026 5.04047 31.1207 5.41955 31.1562 5.66831V11.3544C31.1562 11.6032 31.1739 11.769 31.2094 11.8519C31.2449 11.9348 31.3454 12.0237 31.5111 12.1185L32.3806 12.616L32.3096 13.9487H26.9862L26.933 12.3139Z" fill="white"/>
<path d="M33.1024 12.2606L34.2026 11.9408V3.42942C34.2026 3.16881 34.1848 3.00296 34.1493 2.93189C34.1138 2.84896 34.0192 2.76012 33.8654 2.66535L33.0846 2.25666L33.1379 0.906219L33.688 0.817374C35.2495 0.53307 36.3437 0.379072 36.9707 0.35538C37.0772 0.639684 37.1541 0.947679 37.2014 1.27937V8.51135L39.171 6.5923C39.2302 6.53307 39.2598 6.46792 39.2598 6.39684C39.2598 6.33761 39.242 6.29023 39.2065 6.25469L38.7097 5.63277L38.9049 4.65548H42.8442C42.9506 5.0464 43.0216 5.46693 43.0571 5.91708L40.1115 8.44028L43.5362 13.1668V13.9487H40.4132L37.2014 9.32873V11.3544C37.2014 11.6032 37.2191 11.769 37.2546 11.8519C37.2901 11.9348 37.3848 12.0237 37.5385 12.1185L38.408 12.616L38.337 13.9487H33.1911L33.1024 12.2606Z" fill="white"/>
<path d="M44.8163 0.799605L47.8329 0L48.5604 2.70089L45.5616 3.51826L44.8163 0.799605ZM44.071 12.3139L45.3132 11.9408V7.6229C45.3132 7.36229 45.2895 7.19645 45.2422 7.12537C45.2067 7.04245 45.1061 6.9536 44.9405 6.85884L44.1598 6.43238L44.2485 5.0997C45.2304 4.91017 45.9875 4.77394 46.5198 4.69102C47.064 4.59625 47.5608 4.54294 48.0103 4.5311C48.1641 5.04047 48.2588 5.41955 48.2943 5.66831V11.3544C48.2943 11.6032 48.312 11.769 48.3475 11.8519C48.383 11.9348 48.4835 12.0237 48.6492 12.1185L49.5186 12.616L49.4477 13.9487H44.1243L44.071 12.3139Z" fill="white"/>
<path d="M53.6652 14.1797C52.5295 14.1797 51.6423 13.7532 51.0035 12.9003C50.3647 12.0474 50.0453 10.9042 50.0453 9.47088C50.0453 7.82428 50.4771 6.58045 51.3406 5.73939C52.216 4.89832 53.4582 4.47779 55.067 4.47779C55.1616 4.47779 55.4692 4.48963 55.9897 4.51333V3.44719C55.9897 3.18657 55.972 3.01481 55.9365 2.93189C55.901 2.84896 55.8004 2.76012 55.6348 2.66535L54.8363 2.25666L54.925 0.906219C56.0607 0.704837 56.9006 0.568608 57.4448 0.497532C57.9889 0.41461 58.4207 0.367226 58.7401 0.35538C58.8466 0.627838 58.9235 0.935833 58.9708 1.27937V11.3899C58.9708 11.6032 58.9886 11.7512 59.024 11.8342C59.0714 11.9171 59.1719 12 59.3257 12.0829L60 12.4916L59.929 13.5933C58.7697 13.8894 57.6341 14.0671 56.5221 14.1264C56.4393 13.9013 56.3564 13.6288 56.2736 13.309C55.4692 13.8894 54.5997 14.1797 53.6652 14.1797ZM54.6944 11.9052C55.0848 11.9052 55.5224 11.7749 56.0075 11.5143V6.91214C55.6526 6.75814 55.1971 6.68115 54.6411 6.68115C54.1916 6.68115 53.7598 6.74038 53.3458 6.85884C53.2511 7.08391 53.1743 7.3919 53.1151 7.78282C53.0678 8.17374 53.0441 8.60612 53.0441 9.07996C53.0441 10.0513 53.1743 10.768 53.4345 11.23C53.7066 11.6802 54.1265 11.9052 54.6944 11.9052Z" fill="white"/>
</svg>
