<svg width="130" height="39" viewBox="0 0 130 39" fill="none" xmlns="http://www.w3.org/2000/svg">
<path d="M7.84311 30.7226C5.38252 30.7226 3.4602 29.7986 2.07612 27.9506C0.692039 26.1027 0 23.6259 0 20.5202C0 16.9526 0.935534 14.2576 2.8066 12.4353C4.7033 10.613 7.39457 9.70187 10.8804 9.70187C11.0854 9.70187 11.7518 9.72754 12.8796 9.77887V7.4689C12.8796 6.90424 12.8412 6.53208 12.7643 6.35242C12.6874 6.17275 12.4695 5.98026 12.1107 5.77492L10.3806 4.88944L10.5728 1.96347C13.0334 1.52715 14.8532 1.23198 16.0322 1.07799C17.2113 0.89832 18.1468 0.795655 18.8388 0.769989C19.0695 1.36031 19.2361 2.02764 19.3386 2.77196V24.6782C19.3386 25.1402 19.3771 25.461 19.454 25.6407C19.5565 25.8203 19.7744 26 20.1076 26.1797L21.5685 27.0652L21.4148 29.4521C18.9029 30.0938 16.4423 30.4788 14.033 30.6071C13.8536 30.1194 13.6742 29.5291 13.4948 28.8361C11.7518 30.0938 9.86796 30.7226 7.84311 30.7226ZM10.073 25.7947C10.9188 25.7947 11.8672 25.5123 12.9181 24.9477V14.9763C12.1491 14.6426 11.1623 14.4758 9.95767 14.4758C8.98369 14.4758 8.04816 14.6041 7.15107 14.8608C6.94602 15.3485 6.77942 16.0158 6.65126 16.8628C6.54874 17.7098 6.49748 18.6466 6.49748 19.6732C6.49748 21.7779 6.77942 23.3307 7.3433 24.3317C7.93282 25.307 8.84272 25.7947 10.073 25.7947Z" fill="#4918B6"/>
<path d="M23.0244 26.6802L25.7157 25.8717V16.5163C25.7157 15.9516 25.6644 15.5923 25.5619 15.4383C25.485 15.2586 25.2671 15.0661 24.9083 14.8608L23.2166 13.9368L23.4089 11.0494C25.5363 10.6387 27.1766 10.3435 28.33 10.1639C29.5091 9.95854 30.5856 9.84304 31.5596 9.81737C31.8928 10.921 32.0978 11.7423 32.1747 12.2813V24.6012C32.1747 25.1402 32.2132 25.4995 32.29 25.6792C32.3669 25.8588 32.5848 26.0513 32.9436 26.2567L34.8275 27.3346L34.6737 30.2221H23.1398L23.0244 26.6802Z" fill="#4918B6"/>
<path d="M44.3115 39C41.364 39 39.134 38.538 37.6218 37.614C36.1352 36.69 35.3919 35.3297 35.3919 33.5331C35.3919 31.6338 36.2634 29.9654 38.0063 28.5281C37.468 27.9891 37.1989 27.3988 37.1989 26.7572C37.1989 25.8332 37.8012 24.5242 39.0059 22.8302C36.9041 21.7266 35.8533 19.8272 35.8533 17.1323C35.8533 14.771 36.6478 12.9487 38.237 11.6653C39.8517 10.3564 42.1713 9.70187 45.1958 9.70187C47.3232 9.70187 49.0661 10.0227 50.4245 10.6644L55.0381 9.23988H56.8451V14.8223H53.8463C53.9744 15.464 54.0385 16.0928 54.0385 16.7088C54.0385 19.0701 53.2439 20.8667 51.6548 22.0987C50.0657 23.3307 47.7333 23.9467 44.6575 23.9467C43.6067 23.9467 42.6583 23.8697 41.8125 23.7157V24.2547C41.8125 24.6653 41.9791 24.9605 42.3123 25.1402C42.6711 25.2942 43.4272 25.4482 44.5806 25.6022L48.0408 26.1027C50.7577 26.4877 52.6288 27.155 53.654 28.1046C54.7049 29.0543 55.2304 30.2734 55.2304 31.7621C55.2304 34.0721 54.282 35.8559 52.3853 37.1135C50.4886 38.3712 47.7974 39 44.3115 39ZM45.2342 20.1737C45.7725 20.1737 46.3876 20.0967 47.0797 19.9427C47.1822 19.6347 47.2719 19.1728 47.3488 18.5568C47.4513 17.9408 47.5026 17.3761 47.5026 16.8628C47.5026 15.7078 47.2463 14.848 46.7337 14.2833C46.2467 13.7187 45.4777 13.4363 44.4269 13.4363C43.9142 13.4363 43.3504 13.5133 42.7352 13.6673C42.6071 13.9753 42.4917 14.4245 42.3892 15.0148C42.3123 15.6051 42.2739 16.1698 42.2739 16.7088C42.2739 17.8894 42.5173 18.7621 43.0043 19.3267C43.4913 19.8914 44.2346 20.1737 45.2342 20.1737ZM46.0801 34.6496C47.2591 34.6496 48.1562 34.5469 48.7713 34.3416C48.9251 34.0336 49.002 33.6229 49.002 33.1096C49.002 32.4936 48.7841 32.0188 48.3484 31.6851C47.9127 31.3771 47.1309 31.1461 46.0032 30.9921L44.7729 30.7996C43.6451 30.6713 42.5045 30.4916 41.3511 30.2606C41.1973 30.9536 41.1205 31.5054 41.1205 31.9161C41.1205 32.8401 41.5305 33.5202 42.3507 33.9566C43.1709 34.4186 44.414 34.6496 46.0801 34.6496Z" fill="#4918B6"/>
<path d="M58.3547 26.6802L61.046 25.8717V16.5163C61.046 15.9516 60.9947 15.5923 60.8922 15.4383C60.8153 15.2586 60.5975 15.0661 60.2386 14.8608L58.547 13.9368L58.7392 11.0494C60.8666 10.6387 62.507 10.3435 63.6604 10.1639C64.8394 9.95854 65.9159 9.84304 66.8899 9.81737C67.2231 10.921 67.4281 11.7423 67.505 12.2813V24.6012C67.505 25.1402 67.5435 25.4995 67.6204 25.6792C67.6973 25.8588 67.9151 26.0513 68.274 26.2567L70.1579 27.3346L70.0041 30.2221H58.4701L58.3547 26.6802Z" fill="#4918B6"/>
<path d="M71.7219 26.5647L74.1055 25.8717V7.4304C74.1055 6.86575 74.0671 6.50642 73.9902 6.35242C73.9133 6.17275 73.7083 5.98026 73.3751 5.77492L71.6834 4.88944L71.7987 1.96347L72.9906 1.77098C76.3739 1.15498 78.7448 0.821323 80.1032 0.769989C80.3339 1.38598 80.5005 2.0533 80.603 2.77196V18.4413L84.8706 14.2833C84.9987 14.155 85.0628 14.0138 85.0628 13.8598C85.0628 13.7315 85.0244 13.6288 84.9475 13.5518L83.871 12.2043L84.2939 10.0869H92.829C93.0597 10.9339 93.2135 11.845 93.2904 12.8203L86.9083 18.2873L94.3285 28.5281V30.2221H87.5619L80.603 20.2122V24.6012C80.603 25.1402 80.6415 25.4995 80.7184 25.6792C80.7952 25.8588 81.0003 26.0513 81.3335 26.2567L83.2174 27.3346L83.0636 30.2221H71.9141L71.7219 26.5647Z" fill="#4918B6"/>
<path d="M95.4873 26.6802L98.1785 25.8717V16.5163C98.1785 15.9516 98.1273 15.5923 98.0247 15.4383C97.9478 15.2586 97.73 15.0661 97.3711 14.8608L95.6795 13.9368L95.8717 11.0494C97.9991 10.6387 99.6395 10.3435 100.793 10.1639C101.972 9.95854 103.048 9.84304 104.022 9.81737C104.356 10.921 104.561 11.7423 104.638 12.2813V24.6012C104.638 25.1402 104.676 25.4995 104.753 25.6792C104.83 25.8588 105.048 26.0513 105.406 26.2567L107.29 27.3346L107.137 30.2221H95.6026L95.4873 26.6802Z" fill="#4918B6"/>
<path d="M116.275 30.7226C113.814 30.7226 111.892 29.7986 110.508 27.9506C109.123 26.1027 108.431 23.6259 108.431 20.5202C108.431 16.9526 109.367 14.2576 111.238 12.4353C113.135 10.613 115.826 9.70187 119.312 9.70187C119.517 9.70187 120.183 9.72754 121.311 9.77887V7.4689C121.311 6.90424 121.273 6.53208 121.196 6.35242C121.119 6.17275 120.901 5.98026 120.542 5.77492L118.812 4.88944L119.004 1.96347C121.465 1.52715 123.285 1.23198 124.464 1.07799C125.643 0.89832 126.578 0.795655 127.27 0.769989C127.501 1.36031 127.668 2.02764 127.77 2.77196V24.6782C127.77 25.1402 127.809 25.461 127.885 25.6407C127.988 25.8203 128.206 26 128.539 26.1797L130 27.0652L129.846 29.4521C127.334 30.0938 124.874 30.4788 122.464 30.6071C122.285 30.1194 122.106 29.5291 121.926 28.8361C120.183 30.0938 118.299 30.7226 116.275 30.7226ZM118.504 25.7947C119.35 25.7947 120.299 25.5123 121.35 24.9477V14.9763C120.581 14.6426 119.594 14.4758 118.389 14.4758C117.415 14.4758 116.48 14.6041 115.583 14.8608C115.377 15.3485 115.211 16.0158 115.083 16.8628C114.98 17.7098 114.929 18.6466 114.929 19.6732C114.929 21.7779 115.211 23.3307 115.775 24.3317C116.364 25.307 117.274 25.7947 118.504 25.7947Z" fill="#4918B6"/>
<path d="M103.638 0L97.102 1.73248L98.7168 7.6229L105.214 5.85192L103.638 0Z" fill="#D14343"/>
<path d="M31.1751 0L24.6392 1.73248L26.2539 7.6229L32.7514 5.85192L31.1751 0Z" fill="#D14343"/>
<path d="M66.5055 0L59.9695 1.73248L61.5843 7.6229L68.0818 5.85192L66.5055 0Z" fill="#D14343"/>
</svg>
